<?xml version="1.0" encoding="utf-8"?>
<!-- Generator: Adobe Illustrator 23.0.1, SVG Export Plug-In . SVG Version: 6.00 Build 0)  -->
<svg version="1.1" id="레이어_1" xmlns="http://www.w3.org/2000/svg" xmlns:xlink="http://www.w3.org/1999/xlink" x="0px"
	 y="0px" viewBox="0 0 100 100" style="enable-background:new 0 0 100 100;" xml:space="preserve">
<style type="text/css">
	.st0{fill:#EA2828;}
	.st1{fill:#FFFFFF;}
</style>
<title>mdpi/D</title>
<desc>Created with Sketch.</desc>
<rect id="Rectangle" class="st0" width="100" height="100"/>
<g>
	<path class="st1" d="M74.4,64L74.4,64C74.4,64,74.4,64,74.4,64L74.4,64z"/>
	<path class="st1" d="M25.1,64C25.1,64,25.1,64,25.1,64L25.1,64L25.1,64z"/>
	<path class="st1" d="M74.4,37.9c0-5.2-4.2-9.4-9.4-9.4H54.6l-5.5-8.9l-5.5,8.9h-9c-5.2,0-9.4,4.2-9.4,9.4v26l7.3-5.7V64h34.6v-5.7
		l7.3,5.7L74.4,37.9z M41.4,50.1h-5.8V39.5h5.8V50.1z M63.9,50.1h-5.8V39.5h5.8V50.1z"/>
</g>
</svg>
